<mxfile host="app.diagrams.net" modified="2024-04-14T14:05:34.486Z" agent="Mozilla/5.0 (Macintosh; Intel Mac OS X 10_15_7) AppleWebKit/537.36 (KHTML, like Gecko) Chrome/122.0.0.0 Safari/537.36" etag="ugR0wf3CIY7VUyemP9nE" version="24.2.5" type="device">
  <diagram name="Page-1" id="PDoM7H3jakKwPM1TBmIX">
    <mxGraphModel dx="1466" dy="937" grid="1" gridSize="10" guides="1" tooltips="1" connect="1" arrows="1" fold="1" page="1" pageScale="1" pageWidth="1100" pageHeight="850" math="0" shadow="0">
      <root>
        <mxCell id="0" />
        <mxCell id="1" parent="0" />
        <mxCell id="e5i484eKZmnQZ5HUYei9-24" value="" style="edgeStyle=orthogonalEdgeStyle;rounded=0;orthogonalLoop=1;jettySize=auto;html=1;" edge="1" parent="1" source="e5i484eKZmnQZ5HUYei9-5" target="e5i484eKZmnQZ5HUYei9-16">
          <mxGeometry relative="1" as="geometry" />
        </mxCell>
        <mxCell id="e5i484eKZmnQZ5HUYei9-5" value="Start" style="ellipse;whiteSpace=wrap;html=1;" vertex="1" parent="1">
          <mxGeometry x="40" y="160" width="120" height="80" as="geometry" />
        </mxCell>
        <mxCell id="e5i484eKZmnQZ5HUYei9-30" value="" style="edgeStyle=orthogonalEdgeStyle;rounded=0;orthogonalLoop=1;jettySize=auto;html=1;" edge="1" parent="1">
          <mxGeometry relative="1" as="geometry">
            <mxPoint x="540" y="200" as="sourcePoint" />
            <mxPoint x="619.9999999999999" y="200" as="targetPoint" />
          </mxGeometry>
        </mxCell>
        <mxCell id="e5i484eKZmnQZ5HUYei9-49" value="Yes" style="edgeLabel;html=1;align=center;verticalAlign=middle;resizable=0;points=[];" vertex="1" connectable="0" parent="e5i484eKZmnQZ5HUYei9-30">
          <mxGeometry x="-0.1468" y="-1" relative="1" as="geometry">
            <mxPoint y="-2" as="offset" />
          </mxGeometry>
        </mxCell>
        <mxCell id="e5i484eKZmnQZ5HUYei9-38" style="edgeStyle=orthogonalEdgeStyle;rounded=0;orthogonalLoop=1;jettySize=auto;html=1;entryX=0.5;entryY=0;entryDx=0;entryDy=0;" edge="1" parent="1" source="e5i484eKZmnQZ5HUYei9-6" target="e5i484eKZmnQZ5HUYei9-15">
          <mxGeometry relative="1" as="geometry">
            <Array as="points">
              <mxPoint x="490" y="260" />
              <mxPoint x="300" y="260" />
            </Array>
          </mxGeometry>
        </mxCell>
        <mxCell id="e5i484eKZmnQZ5HUYei9-50" value="No" style="edgeLabel;html=1;align=center;verticalAlign=middle;resizable=0;points=[];" vertex="1" connectable="0" parent="e5i484eKZmnQZ5HUYei9-38">
          <mxGeometry x="0.0002" y="1" relative="1" as="geometry">
            <mxPoint y="-2" as="offset" />
          </mxGeometry>
        </mxCell>
        <mxCell id="e5i484eKZmnQZ5HUYei9-55" value="" style="edgeStyle=orthogonalEdgeStyle;rounded=0;orthogonalLoop=1;jettySize=auto;html=1;" edge="1" parent="1" source="e5i484eKZmnQZ5HUYei9-6" target="e5i484eKZmnQZ5HUYei9-53">
          <mxGeometry relative="1" as="geometry" />
        </mxCell>
        <mxCell id="e5i484eKZmnQZ5HUYei9-56" value="Forgot Password" style="edgeLabel;html=1;align=center;verticalAlign=middle;resizable=0;points=[];" vertex="1" connectable="0" parent="e5i484eKZmnQZ5HUYei9-55">
          <mxGeometry x="-0.0701" relative="1" as="geometry">
            <mxPoint as="offset" />
          </mxGeometry>
        </mxCell>
        <mxCell id="e5i484eKZmnQZ5HUYei9-6" value="Already a&amp;nbsp;&lt;span style=&quot;background-color: initial;&quot;&gt;member?&lt;/span&gt;" style="rhombus;whiteSpace=wrap;html=1;" vertex="1" parent="1">
          <mxGeometry x="440" y="160" width="100" height="80" as="geometry" />
        </mxCell>
        <mxCell id="e5i484eKZmnQZ5HUYei9-29" value="" style="edgeStyle=orthogonalEdgeStyle;rounded=0;orthogonalLoop=1;jettySize=auto;html=1;" edge="1" parent="1" source="e5i484eKZmnQZ5HUYei9-10" target="e5i484eKZmnQZ5HUYei9-6">
          <mxGeometry relative="1" as="geometry" />
        </mxCell>
        <mxCell id="e5i484eKZmnQZ5HUYei9-10" value="Login Page" style="rounded=1;whiteSpace=wrap;html=1;" vertex="1" parent="1">
          <mxGeometry x="240" y="170" width="120" height="60" as="geometry" />
        </mxCell>
        <mxCell id="e5i484eKZmnQZ5HUYei9-63" value="" style="edgeStyle=orthogonalEdgeStyle;rounded=0;orthogonalLoop=1;jettySize=auto;html=1;" edge="1" parent="1" source="e5i484eKZmnQZ5HUYei9-11" target="e5i484eKZmnQZ5HUYei9-60">
          <mxGeometry relative="1" as="geometry" />
        </mxCell>
        <mxCell id="e5i484eKZmnQZ5HUYei9-64" style="edgeStyle=orthogonalEdgeStyle;rounded=0;orthogonalLoop=1;jettySize=auto;html=1;entryX=0;entryY=0.5;entryDx=0;entryDy=0;" edge="1" parent="1" source="e5i484eKZmnQZ5HUYei9-11" target="e5i484eKZmnQZ5HUYei9-61">
          <mxGeometry relative="1" as="geometry" />
        </mxCell>
        <mxCell id="e5i484eKZmnQZ5HUYei9-66" style="edgeStyle=orthogonalEdgeStyle;rounded=0;orthogonalLoop=1;jettySize=auto;html=1;entryX=0;entryY=0.5;entryDx=0;entryDy=0;" edge="1" parent="1" source="e5i484eKZmnQZ5HUYei9-11" target="e5i484eKZmnQZ5HUYei9-62">
          <mxGeometry relative="1" as="geometry" />
        </mxCell>
        <mxCell id="e5i484eKZmnQZ5HUYei9-11" value="Dashboard Page" style="rounded=1;whiteSpace=wrap;html=1;" vertex="1" parent="1">
          <mxGeometry x="620" y="170" width="120" height="60" as="geometry" />
        </mxCell>
        <mxCell id="e5i484eKZmnQZ5HUYei9-14" value="Contact Page" style="rounded=1;whiteSpace=wrap;html=1;" vertex="1" parent="1">
          <mxGeometry x="240" y="90" width="120" height="60" as="geometry" />
        </mxCell>
        <mxCell id="e5i484eKZmnQZ5HUYei9-40" value="" style="edgeStyle=orthogonalEdgeStyle;rounded=0;orthogonalLoop=1;jettySize=auto;html=1;" edge="1" parent="1" source="e5i484eKZmnQZ5HUYei9-15" target="e5i484eKZmnQZ5HUYei9-39">
          <mxGeometry relative="1" as="geometry" />
        </mxCell>
        <mxCell id="e5i484eKZmnQZ5HUYei9-15" value="Sign Up Page" style="rounded=1;whiteSpace=wrap;html=1;" vertex="1" parent="1">
          <mxGeometry x="240" y="290" width="120" height="60" as="geometry" />
        </mxCell>
        <mxCell id="e5i484eKZmnQZ5HUYei9-31" style="edgeStyle=orthogonalEdgeStyle;rounded=0;orthogonalLoop=1;jettySize=auto;html=1;entryX=0;entryY=0.5;entryDx=0;entryDy=0;" edge="1" parent="1" source="e5i484eKZmnQZ5HUYei9-16" target="e5i484eKZmnQZ5HUYei9-14">
          <mxGeometry relative="1" as="geometry" />
        </mxCell>
        <mxCell id="e5i484eKZmnQZ5HUYei9-32" style="edgeStyle=orthogonalEdgeStyle;rounded=0;orthogonalLoop=1;jettySize=auto;html=1;entryX=0;entryY=0.5;entryDx=0;entryDy=0;" edge="1" parent="1" source="e5i484eKZmnQZ5HUYei9-16" target="e5i484eKZmnQZ5HUYei9-10">
          <mxGeometry relative="1" as="geometry" />
        </mxCell>
        <mxCell id="e5i484eKZmnQZ5HUYei9-33" style="edgeStyle=orthogonalEdgeStyle;rounded=0;orthogonalLoop=1;jettySize=auto;html=1;entryX=0;entryY=0.5;entryDx=0;entryDy=0;" edge="1" parent="1" source="e5i484eKZmnQZ5HUYei9-16" target="e5i484eKZmnQZ5HUYei9-15">
          <mxGeometry relative="1" as="geometry" />
        </mxCell>
        <mxCell id="e5i484eKZmnQZ5HUYei9-34" style="edgeStyle=orthogonalEdgeStyle;rounded=0;orthogonalLoop=1;jettySize=auto;html=1;entryX=0;entryY=0.5;entryDx=0;entryDy=0;" edge="1" parent="1" source="e5i484eKZmnQZ5HUYei9-16" target="e5i484eKZmnQZ5HUYei9-19">
          <mxGeometry relative="1" as="geometry" />
        </mxCell>
        <mxCell id="e5i484eKZmnQZ5HUYei9-35" style="edgeStyle=orthogonalEdgeStyle;rounded=0;orthogonalLoop=1;jettySize=auto;html=1;entryX=0;entryY=0.5;entryDx=0;entryDy=0;" edge="1" parent="1" source="e5i484eKZmnQZ5HUYei9-16" target="e5i484eKZmnQZ5HUYei9-17">
          <mxGeometry relative="1" as="geometry" />
        </mxCell>
        <mxCell id="e5i484eKZmnQZ5HUYei9-36" style="edgeStyle=orthogonalEdgeStyle;rounded=0;orthogonalLoop=1;jettySize=auto;html=1;entryX=0;entryY=0.5;entryDx=0;entryDy=0;" edge="1" parent="1" source="e5i484eKZmnQZ5HUYei9-16" target="e5i484eKZmnQZ5HUYei9-18">
          <mxGeometry relative="1" as="geometry" />
        </mxCell>
        <mxCell id="e5i484eKZmnQZ5HUYei9-16" value="Home Page" style="rounded=1;whiteSpace=wrap;html=1;" vertex="1" parent="1">
          <mxGeometry x="40" y="290" width="120" height="60" as="geometry" />
        </mxCell>
        <mxCell id="e5i484eKZmnQZ5HUYei9-17" value="Privacy Policy Page" style="rounded=1;whiteSpace=wrap;html=1;" vertex="1" parent="1">
          <mxGeometry x="240" y="450" width="120" height="60" as="geometry" />
        </mxCell>
        <mxCell id="e5i484eKZmnQZ5HUYei9-18" value="Terms &amp;amp; Conditions Page" style="rounded=1;whiteSpace=wrap;html=1;" vertex="1" parent="1">
          <mxGeometry x="240" y="530" width="120" height="60" as="geometry" />
        </mxCell>
        <mxCell id="e5i484eKZmnQZ5HUYei9-51" style="edgeStyle=orthogonalEdgeStyle;rounded=0;orthogonalLoop=1;jettySize=auto;html=1;entryX=0;entryY=0.5;entryDx=0;entryDy=0;" edge="1" parent="1">
          <mxGeometry relative="1" as="geometry">
            <mxPoint x="360" y="400" as="sourcePoint" />
            <mxPoint x="620" y="400" as="targetPoint" />
          </mxGeometry>
        </mxCell>
        <mxCell id="e5i484eKZmnQZ5HUYei9-52" value="&lt;span style=&quot;font-size: 12px; background-color: rgb(251, 251, 251);&quot;&gt;Choose a Pricing Plan&lt;/span&gt;" style="edgeLabel;html=1;align=center;verticalAlign=middle;resizable=0;points=[];" vertex="1" connectable="0" parent="e5i484eKZmnQZ5HUYei9-51">
          <mxGeometry x="-0.0482" y="-1" relative="1" as="geometry">
            <mxPoint y="-1" as="offset" />
          </mxGeometry>
        </mxCell>
        <mxCell id="e5i484eKZmnQZ5HUYei9-19" value="Pricing Page" style="rounded=1;whiteSpace=wrap;html=1;" vertex="1" parent="1">
          <mxGeometry x="240" y="370" width="120" height="60" as="geometry" />
        </mxCell>
        <mxCell id="e5i484eKZmnQZ5HUYei9-47" value="" style="edgeStyle=orthogonalEdgeStyle;rounded=0;orthogonalLoop=1;jettySize=auto;html=1;" edge="1" parent="1" source="e5i484eKZmnQZ5HUYei9-39" target="e5i484eKZmnQZ5HUYei9-46">
          <mxGeometry relative="1" as="geometry" />
        </mxCell>
        <mxCell id="e5i484eKZmnQZ5HUYei9-39" value="Sign Up&amp;nbsp;&lt;div&gt;&lt;span style=&quot;background-color: initial;&quot;&gt;Confirmation Page&lt;/span&gt;&lt;/div&gt;" style="rounded=1;whiteSpace=wrap;html=1;" vertex="1" parent="1">
          <mxGeometry x="430" y="290" width="120" height="60" as="geometry" />
        </mxCell>
        <mxCell id="e5i484eKZmnQZ5HUYei9-44" value="Sign Up Page" style="rounded=1;whiteSpace=wrap;html=1;" vertex="1" parent="1">
          <mxGeometry x="620" y="370" width="120" height="60" as="geometry" />
        </mxCell>
        <mxCell id="e5i484eKZmnQZ5HUYei9-46" value="&lt;div&gt;&lt;span style=&quot;background-color: initial;&quot;&gt;Login Page&lt;/span&gt;&lt;/div&gt;" style="rounded=1;whiteSpace=wrap;html=1;" vertex="1" parent="1">
          <mxGeometry x="620" y="290" width="120" height="60" as="geometry" />
        </mxCell>
        <mxCell id="e5i484eKZmnQZ5HUYei9-57" value="" style="edgeStyle=orthogonalEdgeStyle;rounded=0;orthogonalLoop=1;jettySize=auto;html=1;" edge="1" parent="1" source="e5i484eKZmnQZ5HUYei9-53" target="e5i484eKZmnQZ5HUYei9-54">
          <mxGeometry relative="1" as="geometry" />
        </mxCell>
        <mxCell id="e5i484eKZmnQZ5HUYei9-53" value="Password Reset Page" style="rounded=1;whiteSpace=wrap;html=1;" vertex="1" parent="1">
          <mxGeometry x="430" y="50" width="120" height="60" as="geometry" />
        </mxCell>
        <mxCell id="e5i484eKZmnQZ5HUYei9-59" value="" style="edgeStyle=orthogonalEdgeStyle;rounded=0;orthogonalLoop=1;jettySize=auto;html=1;" edge="1" parent="1" source="e5i484eKZmnQZ5HUYei9-54" target="e5i484eKZmnQZ5HUYei9-58">
          <mxGeometry relative="1" as="geometry" />
        </mxCell>
        <mxCell id="e5i484eKZmnQZ5HUYei9-54" value="Password Reset Confirmation Page" style="rounded=1;whiteSpace=wrap;html=1;" vertex="1" parent="1">
          <mxGeometry x="620" y="50" width="120" height="60" as="geometry" />
        </mxCell>
        <mxCell id="e5i484eKZmnQZ5HUYei9-58" value="&lt;div&gt;&lt;span style=&quot;background-color: initial;&quot;&gt;Login Page&lt;/span&gt;&lt;/div&gt;" style="rounded=1;whiteSpace=wrap;html=1;" vertex="1" parent="1">
          <mxGeometry x="810" y="50" width="120" height="60" as="geometry" />
        </mxCell>
        <mxCell id="e5i484eKZmnQZ5HUYei9-60" value="Dashboard Chat Page" style="rounded=1;whiteSpace=wrap;html=1;" vertex="1" parent="1">
          <mxGeometry x="810" y="170" width="120" height="60" as="geometry" />
        </mxCell>
        <mxCell id="e5i484eKZmnQZ5HUYei9-61" value="Dashboard Account Page" style="rounded=1;whiteSpace=wrap;html=1;" vertex="1" parent="1">
          <mxGeometry x="810" y="290" width="120" height="60" as="geometry" />
        </mxCell>
        <mxCell id="e5i484eKZmnQZ5HUYei9-62" value="Dashboard Help Page" style="rounded=1;whiteSpace=wrap;html=1;" vertex="1" parent="1">
          <mxGeometry x="810" y="410" width="120" height="60" as="geometry" />
        </mxCell>
      </root>
    </mxGraphModel>
  </diagram>
</mxfile>
